<svg width="14" height="15" viewBox="0 0 14 15" fill="none" xmlns="http://www.w3.org/2000/svg">
    <g clip-path="url(#clip0_2065_726)">
        <path d="M14 7.5C14 11.3596 10.8493 14.5 6.97699 14.5C-2.3268 14.1483 -2.32453 0.850566 6.97699 0.5C10.8493 0.5 14 3.64037 14 7.5ZM11.7255 7.5C11.7255 4.89029 9.59528 2.76707 6.97699 2.76707C0.686392 3.00494 0.688096 11.9956 6.97699 12.2324C9.59528 12.2324 11.7249 10.1091 11.7249 7.49943L11.7255 7.5ZM9.33731 6.3945H8.14294V5.14741C8.08726 3.6449 5.92354 3.64604 5.86842 5.14741V7.52775C5.86842 8.15356 6.37753 8.66157 7.00597 8.66157H9.33731C10.8448 8.60607 10.8436 6.44943 9.33731 6.3945Z"
              fill="white"/>
    </g>
    <defs>
        <clipPath id="clip0_2065_726">
            <rect width="14" height="14" fill="white" transform="translate(0 0.5)"/>
        </clipPath>
    </defs>
</svg>
